<svg width="640" height="640" viewBox="0 0 24 24" fill="white" xmlns="http://www.w3.org/2000/svg">
  <path d="M20.52 3.48A11.8 11.8 0 0012.05 0C5.44 0 .1 5.34.1 11.95c0 2.11.55 4.17 1.6 5.99L0 24l6.23-1.63a11.88 11.88 0 005.82 1.49h.01c6.61 0 11.95-5.34 11.95-11.95 0-3.19-1.24-6.19-3.49-8.43zM12.06 21.5h-.01a9.5 9.5 0 01-4.84-1.32l-.35-.21-3.7.97.99-3.61-.23-.37a9.47 9.47 0 01-1.45-5.01c0-5.25 4.28-9.53 9.54-9.53 2.55 0 4.95.99 6.75 2.8a9.48 9.48 0 012.79 6.73c0 5.26-4.28 9.54-9.54 9.54zm5.22-7.12c-.28-.14-1.66-.82-1.92-.91-.26-.09-.45-.14-.64.14-.19.28-.73.91-.89 1.1-.16.19-.33.21-.61.07-.28-.14-1.18-.44-2.25-1.4-.83-.74-1.4-1.66-1.56-1.94-.16-.28-.02-.43.12-.57.13-.13.28-.33.42-.49.14-.16.19-.28.28-.47.09-.19.05-.35-.02-.49-.07-.14-.64-1.54-.88-2.11-.23-.56-.47-.48-.64-.49l-.55-.01c-.19 0-.49.07-.75.35s-.98.96-.98 2.35c0 1.39 1 2.73 1.14 2.92.14.19 1.97 3.01 4.77 4.22.67.29 1.19.46 1.6.59.67.21 1.28.18 1.76.11.54-.08 1.66-.68 1.9-1.34.23-.66.23-1.22.16-1.34-.07-.12-.26-.19-.54-.33z"></path>
</svg>